<?xml version="1.0" encoding="utf-8"?>
<!-- Generator: Adobe Illustrator 21.0.2, SVG Export Plug-In . SVG Version: 6.00 Build 0)  -->
<svg version="1.1" xmlns="http://www.w3.org/2000/svg" xmlns:xlink="http://www.w3.org/1999/xlink" x="0px" y="0px"
	 viewBox="0 0 500 500" style="enable-background:new 0 0 500 500;" xml:space="preserve">
<g id="background">
	<path class="st0" d="M116,328l-7,16c0,0-1,2,3,3s6,0,6,0l-8,20h17l-1,5h-11c0,0-3,2-2,3s10,3,15,3s19-1,19-1s1-4-2-5s54,0,54,0
		s3,1,1,2s-3,2-3,2s-1,3,4,3s34-1,34-1s1-2,0-3s-12-1-12-1s-2-2,0-2s26,0,26,0s2-3-1-4s-12,0-12,0v-5h-6v2l-4-3h-4c0,0-8-14-10-15
		s-6,0-6,0s-4-3,0-5h12c0,0,3-1,2-4c0,0-5-1-9-1l-1-7h-57C153,330,120,327,116,328z"/>
</g>
<g id="left">
	<g id='leftKran'>
		<polygon class="st1" points="397,295 387,285 375,305 376,306 		"/>
		<polygon class="st2" points="384,290 391,290 387,285 		"/>
		<polygon class="st2" points="380.5,295.5 392.7,297.2 385.2,301.1 378,300 		"/>
		<polygon class="st3" points="242,138 252.4,127.7 234,109 230,112 228,112 226,115 226,117 224,121 		"/>
		<polygon class="st3" points="256,124 266.4,113.7 248,95 244,98 242,98 240,101 240,103 238,107 		"/>
		<path id="kranPath" class="st4" d="M239,140c0,0,27-30,32-31l4,3l-3,3c0,0,8.4,1.8,13.7,6.9L300,142l3-2l4,5l-4,3c0,0,33,43,57,60v4l38,37l-1,4
			l9,10c0,0,6-3,12,4c0,0,8,7,2,13c0,0-2,7-15,11l-8,7l-13-15l7-6l2.4-2.4c0.4-0.4,0.7-0.9,1-1.4l1.6-3.2l-10-7l-3,3l-39-37h-4
			c0,0-23.6-23.5-47-44C268.1,163.2,245,151,239,140z"/>
		<line class="st5" x1="380" y1="262" x2="395" y2="246"/>
		<path class="st5" d="M410.5,266.5c0,0,9,1,9,9s-9,10-9,10"/>
	</g>
	<g id='leftStand'>
		<path class="st6" d="M139.5,321.5l-7-6c0,0-1-5,0-7s4-3,4-3v-13c0,0,5-4,8-4s5,0,5,0v3c0,0,5-4,22-4c0,0,0-13,10-13s14,0,14,0v7h2
			v6h7v-6h8c0,0,3,0,3,2c0,0,18-8,33-8s11-112,4-139c0,0-1-20,18-20c0,0,19-2,20,19s-7,73,5,152c0,0,7,7,9,12v6h-7c0,0-2,19-19,20
			s-59-2-59-2s-6,1-9,6l-57,1c0,0-1-10,3-11v-3l-12,13v-6h-3L139.5,321.5z"/>
		<path class="st3" d="M267,144h8v-5c0,0,2-6-3-7s-5,4-5,4v3"/>
		<rect x="263" y="167" class="st3" width="16" height="4"/>
		<rect x="263" y="276" class="st3" width="16" height="4"/>
		<circle class="st3" cx="271" cy="302" r="4"/>
		<ellipse transform="matrix(0.7558 -0.6548 0.6548 0.7558 -137.3511 234.7155)" class="st3" cx="246" cy="301.5" rx="6" ry="3.5"/>
		<rect x="153" y="297" class="st3" width="52" height="8"/>
		<rect x="198" y="280" class="st3" width="6" height="6"/>
		<rect x="133" y="309" class="st3" width="12" height="20"/>
		<path class="st5" d="M254.5,136.5c0,0,9,44,4,95c-2.9,29.9-8,48-8,48"/>
	</g>
</g>
<g id="front" class="st7">
	<path class="st8" d="M210,330h-57l1-4h-4v-6l-17,1l-2-2l-13,3l-2-7l-1-2h1c0,0,0-5,4-7c0,0,6-3,10,2l2-1c0,0-12-20-15-83
		c0,0-4-39,19-96c0,0,4-1,11,2l4,8v26c0,0,12,11,23,11v4h-26c0,0-1,29,3,54s6,36,6,36s13,7,38,7c0,0,9,2,13,16
		C208,292,216,317,210,330z"/>
	<path class="st9" d="M126.2,159c0,0-7.2-7-7.2-10s6-4,6-4l3.9,3.7C128.9,148.7,129.3,154.9,126.2,159z"/>
	<path class="st9" d="M121.7,175.5l-1.8,10.6L111,186c0,0-6-1-6-3s0-6,5-7S121.7,175.5,121.7,175.5z"/>
	<path class="st9" d="M126,285h-10c0,0-4,1-5-3s4-7,4-7h8L126,285z"/>
	<g class="st10" id='frontKran'>
		<rect x="163" y="94" class="st11" width="20" height="5"/>
		<g id="lez">
			<polygon class="st1" points="171,398 162,370 179,370 			"/>
			<polygon class="st2" points="167.4,387 177,371 178.8,371 176.9,377.5 168.3,390.1 			"/>
			<polygon class="st2" points="162.2,370.8 164.8,378.7 169,370 			"/>
		</g>
		<path class="st11" d="M183,362v5l-3,2l-0.5,2.8l-20.7-0.2l0.2-3.6c0,0-5,0-6-5s-2-17,0-22s2-5,2-5h6v5h2l-1-21l-4-1
			c0,0-3-77-6-100s-4-100-4-100h8v-6h7V84h10v28h3l2,46c0,0,7,0,7,4s-7,5-7,5v9h3c0,0,3,21,3,27s-2,71-2,71l-1,45l-4,2l-1,14l13-1
			c0,0,1,7,1,12s-1,13-1,13S186,362,183,362z"/>
		<polygon class="st3" points="209,129 209,137 211,137 211,142 209,142 209,150 202,150 202,154 180,154 180,151 177,151.3
			177,144 179,144 179,138 176,138 176,133 179,133 179,129 176.4,128.9 176.4,126.5 180,126 189,126 189,123 196,123 197,126
			203,126 203,123 206,123 206,129 		"/>
		<polygon class="st3" points="180,124 176,124 175,119 175,115 173,115 173,114 174,114 174,84 179,84 179,86 184,86 184,92
			180,92 180,87 176,87 176,90 178,90 178,93 176,93 176,98 179,98 179,114 180,114 		"/>
		<line class="st12" x1="161" y1="111" x2="161" y2="84"/>
		<line class="st12" x1="166.5" y1="82.5" x2="172.5" y2="82.5"/>
		<line class="st13" x1="183.5" y1="98.5" x2="183.5" y2="94.5"/>
		<polyline class="st5" points="156,314 169.5,315.5 182,314 		"/>
		<path class="st3" d="M167,121c0,0,7,0,8-2s3,80,3,80s0,17-3,19s-7,2-7,2v-49c0,0,8,1,8-4s-8-4-8-4L167,121z"/>
	</g>
</g>
<g id="middle">
	<g id="mKran">
		<g>
			<polygon class="st3" points="323,193 318,160 336,163 			"/>
			<polygon class="st4" points="319.9,174 328,165 318.3,164 			"/>
			<polygon class="st4" points="320.6,179 334,167.2 330.5,175.5 321.7,183.7 			"/>
		</g>
		<path class="st14" id="KranPath2" d="M350,132l-14-5c0,0-5-2-6,4h-4c0,0-2-6-12-7l-23-1c0,0-2-4-8-4s-23,0-23,0s-25-8-29-14h-23c0,0-11,5-11,19
			l-1,26h22l2,7l9-7c0,0,26-4,33-2s26,4,29,1h18v8c0,0,3,3,5,3v4l3,2c0,0,14,3,20,1l4-8h4c0,0,7-4,7-15C352,144,352,138,350,132z
			 M329,143c-4,0-3-3-3-3h5C331,140,333,143,329,143z"/>
		<path  class="stM" d="M330,131c0,0,3,0,3,3s-1,6-2,6l0.8,1.7c0,0,3.2-0.7,3.2-2.7c0,0,2.6-7.2-0.2-12.1
			C334.8,126.9,331,126,330,131z"/>
	</g>
	<g id="mBody">
		<path class="st15" d="M215.5,266.5c0,0,9-1,9,6c0,0,16-1,21,9l5,8l6,2c0,0,6,18-3,18c0,0-1,16-12,17l-15,2l-10-4l-7,2h-52l-10-3
			l-10-1l-2-8c0,0-6,4-11-3c0,0-3-8,4-10c0,0,4-2,7,1v-10c0,0,6-7,12,0l3-2c0,0-5-15,6-18c0,0,10-3,17,4h4c0,0-4-14-4-58
			s10-90,10-90s9-21,21-17c0,0,17,1,12,29c0,0-4.2,4-5,12C209.5,173.5,215.5,266.5,215.5,266.5z"/>
		<path class="stM" d="M188,141c0,0,4-1,4-5s-1-8-1-8s-5-2-7,1s1,6,1,6L188,141z"/>
		<rect x="169" y="162" class="stM" width="18" height="6"/>
		<rect x="168" y="274" class="stM" width="19" height="6"/>
		<path class="stM" d="M165,295c0,0-2,3-1,8l-20-1c0,0-5-5,1-9L165,295z"/>
		<path class="stM" d="M186,301c0,0,1,6,6,5s4-4,4-4s0-4-5-4S186,301,186,301z"/>
	</g>
</g>
</svg>
